{"title":"how i met your mother E1 S7","uid":7457793,"size":183227681,"categoryP":"video","categoryS":"tv_shows","magnet":"?xt=urn:btih:12b41446fa4962f8067ca13820c982d812e1d165&amp;dn=how+i+met+your+mother+E1+S7&amp;tr=udp%3A%2F%2Ftracker.openbittorrent.com%3A80&amp;tr=udp%3A%2F%2Fopen.demonii.com%3A1337&amp;tr=udp%3A%2F%2Ftracker.coppersurfer.tk%3A6969&amp;tr=udp%3A%2F%2Fexodus.desync.com%3A6969","seeders":0,"leechers":1,"uploader":"EXiRTiTi-1337","files":2,"time":1342717464,"description":"^^^^^Google translate from english to swedish comes with this^^^^^^\n--------------------------------------------------------------------\n\nFormat                           : AVI\nFormat/Info                      : Audio Video Interleave\nFile size                        : 175 MiB\nDuration                         : 21mn 30s\nOverall bit rate                 : 1 136 Kbps\nWriting application              : Lavf53.2.0\n\nVideo\nID                               : 0\nFormat                           : MPEG-4 Visual\nFormat profile                   : Advanced Simple@L5\nFormat settings, BVOP            : 2\nFormat settings, QPel            : No\nFormat settings, GMC             : No warppoints\nFormat settings, Matrix          : Default (H.263)\nCodec ID                         : XVID\nCodec ID/Hint                    : XviD\nDuration                         : 21mn 30s\nBit rate                         : 1 001 Kbps\nWidth                            : 624 pixels\nHeight                           : 352 pixels\nDisplay aspect ratio             : 16:9\nFrame rate                       : 23.976 fps\nColor space                      : YUV\nChroma subsampling               : 4:2:0\nBit depth                        : 8 bits\nScan type                        : Progressive\nCompression mode                 : Lossy\nBits/(Pixel*Frame)               : 0.190\nStream size                      : 154 MiB (88%)\nWriting library                  : XviD 63\n\nAudio\nID                               : 1\nFormat                           : MPEG Audio\nFormat version                   : Version 1\nFormat profile                   : Layer 3\nMode                             : Joint stereo\nMode extension                   : MS Stereo\nCodec ID                         : 55\nCodec ID/Hint                    : MP3\nDuration                         : 21mn 30s\nBit rate mode                    : Variable\nBit rate                         : 122 Kbps\nChannel(s)                       : 2 channels\nSampling rate                    : 48.0 KHz\nCompression mode                 : Lossy\nStream size                      : 18.7 MiB (11%)\nAlignment                        : Aligned on interleaves\nInterleave, duration             : 24 ms (0.58 video frame)\n----------------------------------------------------------------------\nsource:thanks :)\n----------------------------------------------------------------------\n","torrent":{"xt":"urn:btih:12b41446fa4962f8067ca13820c982d812e1d165","amp;dn":"how+i+met+your+mother+E1+S7","amp;tr":["udp%3A%2F%2Ftracker.openbittorrent.com%3A80","udp%3A%2F%2Fopen.demonii.com%3A1337","udp%3A%2F%2Ftracker.coppersurfer.tk%3A6969","udp%3A%2F%2Fexodus.desync.com%3A6969"],"infoHash":"12b41446fa4962f8067ca13820c982d812e1d165","infoHashBuffer":{"type":"Buffer","data":[18,180,20,70,250,73,98,248,6,124,161,56,32,201,130,216,18,225,209,101]},"announce":[],"urlList":[]}}